<svg width="36" height="36" viewBox="0 0 36 36" fill="none" xmlns="http://www.w3.org/2000/svg">
<path fill-rule="evenodd" clip-rule="evenodd" d="M10.5 4.49997C7.18628 4.49997 4.49999 7.18626 4.49999 10.5V25.5C4.49999 28.8137 7.18628 31.5 10.5 31.5H25.5C28.8137 31.5 31.5 28.8137 31.5 25.5V10.5C31.5 7.18626 28.8137 4.49997 25.5 4.49997H10.5ZM1.49999 10.5C1.49999 5.52941 5.52943 1.49997 10.5 1.49997H25.5C30.4706 1.49997 34.5 5.52941 34.5 10.5V25.5C34.5 30.4705 30.4706 34.5 25.5 34.5H10.5C5.52943 34.5 1.49999 30.4705 1.49999 25.5V10.5Z" fill="white"/>
<path fill-rule="evenodd" clip-rule="evenodd" d="M18.725 13.4838C17.7887 13.345 16.8325 13.5049 15.9923 13.9409C15.1522 14.3768 14.4709 15.0665 14.0453 15.912C13.6198 16.7575 13.4717 17.7156 13.6221 18.6501C13.7724 19.5846 14.2136 20.4478 14.8829 21.1171C15.5522 21.7864 16.4155 22.2276 17.35 22.378C18.2845 22.5284 19.2426 22.3803 20.0881 21.9547C20.9335 21.5292 21.6233 20.8479 22.0592 20.0077C22.4951 19.1676 22.6551 18.2114 22.5162 17.2751C22.3746 16.32 21.9296 15.4359 21.2469 14.7532C20.5642 14.0705 19.68 13.6255 18.725 13.4838ZM14.6106 11.278C16.0109 10.5514 17.6046 10.2849 19.165 10.5163C20.7568 10.7523 22.2304 11.494 23.3682 12.6319C24.506 13.7697 25.2477 15.2433 25.4838 16.835C25.7152 18.3955 25.4486 19.9892 24.7221 21.3894C23.9955 22.7897 22.8459 23.9252 21.4368 24.6344C20.0277 25.3437 18.4309 25.5905 16.8734 25.3399C15.3159 25.0893 13.8771 24.3539 12.7616 23.2385C11.6461 22.123 10.9108 20.6842 10.6602 19.1267C10.4095 17.5692 10.6564 15.9723 11.3656 14.5632C12.0749 13.1541 13.2104 12.0045 14.6106 11.278Z" fill="white"/>
<path fill-rule="evenodd" clip-rule="evenodd" d="M24.75 9.74997C24.75 8.92154 25.4216 8.24997 26.25 8.24997H26.265C27.0934 8.24997 27.765 8.92154 27.765 9.74997C27.765 10.5784 27.0934 11.25 26.265 11.25H26.25C25.4216 11.25 24.75 10.5784 24.75 9.74997Z" fill="white"/>
</svg>
