<svg width="36" height="36" viewBox="0 0 36 36" fill="none" xmlns="http://www.w3.org/2000/svg">
<path fill-rule="evenodd" clip-rule="evenodd" d="M6 7.50003C5.17843 7.50003 4.5 8.17846 4.5 9.00003V27C4.5 27.8216 5.17843 28.5 6 28.5H30C30.8216 28.5 31.5 27.8216 31.5 27V9.00003C31.5 8.17846 30.8216 7.50003 30 7.50003H6ZM1.5 9.00003C1.5 6.5216 3.52157 4.50003 6 4.50003H30C32.4784 4.50003 34.5 6.5216 34.5 9.00003V27C34.5 29.4785 32.4784 31.5 30 31.5H6C3.52157 31.5 1.5 29.4785 1.5 27V9.00003Z" fill="white"/>
<path fill-rule="evenodd" clip-rule="evenodd" d="M1.77115 8.13981C2.24622 7.46114 3.18152 7.29609 3.86019 7.77116L18 17.669L32.1398 7.77116C32.8185 7.29609 33.7538 7.46114 34.2288 8.13981C34.7039 8.81849 34.5389 9.75378 33.8602 10.2289L18.8602 20.7289C18.3437 21.0904 17.6563 21.0904 17.1398 20.7289L2.13981 10.2289C1.46113 9.75378 1.29608 8.81849 1.77115 8.13981Z" fill="white"/>
</svg>
