<svg width="36" height="36" viewBox="0 0 36 36" fill="none" xmlns="http://www.w3.org/2000/svg">
<path d="M24.9 21C24.6 20.85 22.65 19.95 22.35 19.8C22.05 19.65 21.75 19.65 21.45 19.95C21.15 20.25 20.55 21.15 20.25 21.45C20.1 21.75 19.8 21.75 19.5 21.6C18.45 21.15 17.4 20.55 16.5 19.8C15.75 19.05 15 18.15 14.4 17.25C14.25 16.95 14.4 16.65 14.55 16.5C14.7 16.35 14.85 16.05 15.15 15.9C15.3 15.75 15.45 15.45 15.45 15.3C15.6 15.15 15.6 14.85 15.45 14.7C15.3 14.55 14.55 12.75 14.25 12C14.1 10.95 13.8 10.95 13.5 10.95C13.35 10.95 13.05 10.95 12.75 10.95C12.45 10.95 12 11.25 11.85 11.4C10.95 12.3 10.5 13.35 10.5 14.55C10.65 15.9 11.1 17.25 12 18.45C13.65 20.85 15.75 22.8 18.3 24C19.05 24.3 19.65 24.6 20.4 24.75C21.15 25.05 21.9 25.05 22.8 24.9C23.85 24.75 24.75 24 25.35 23.1C25.65 22.5 25.65 21.9 25.5 21.3C25.5 21.3 25.2 21.15 24.9 21ZM28.65 7.34999C22.8 1.49999 13.35 1.49999 7.5 7.34999C2.7 12.15 1.8 19.5 5.1 25.35L3 33L10.95 30.9C13.2 32.1 15.6 32.7 18 32.7C26.25 32.7 32.85 26.1 32.85 17.85C33 13.95 31.35 10.2 28.65 7.34999ZM24.6 28.35C22.65 29.55 20.4 30.3 18 30.3C15.75 30.3 13.65 29.7 11.7 28.65L11.25 28.35L6.6 29.55L7.8 25.05L7.5 24.6C3.9 18.6 5.7 11.1 11.55 7.34999C17.4 3.59999 24.9 5.54999 28.5 11.25C32.1 17.1 30.45 24.75 24.6 28.35Z" fill="white"/>
</svg>
