<svg width="22" height="20" viewBox="0 0 22 20" fill="none" xmlns="http://www.w3.org/2000/svg">
<path d="M20.1712 1.82875L18.3288 0L16.5 1.82875L14.6713 0L12.8425 1.82875L11 0L9.17125 1.82875L7.32875 0L5.5 1.82875L3.67125 0L1.82875 1.82875L0 0V17.1875C0 18.3288 0.92125 19.25 2.0625 19.25H19.9375C21.0788 19.25 22 18.3288 22 17.1875V0L20.1712 1.82875ZM19.9375 8.9375H2.0625V4.8125H19.9375V8.9375ZM12.0312 11H19.9375V13.0625H12.0312V11ZM2.0625 11H9.96875V17.1875H2.0625V11ZM12.0312 17.1875V15.125H19.9375V17.1875H12.0312Z" fill="white"/>
</svg>
