<svg width="30" height="30" viewBox="0 0 30 30" fill="none" xmlns="http://www.w3.org/2000/svg">
<path d="M18.75 27.5C18.06 27.5 17.5 26.9412 17.5 26.25V18.75C17.5 18.0588 18.06 17.5 18.75 17.5C19.44 17.5 20 18.0588 20 18.75V26.25C20 26.9412 19.44 27.5 18.75 27.5ZM11.25 27.5C10.56 27.5 10 26.9412 10 26.25V18.75C10 18.0588 10.56 17.5 11.25 17.5C11.94 17.5 12.5 18.0588 12.5 18.75V26.25C12.5 26.9412 11.94 27.5 11.25 27.5ZM15 30C14.31 30 13.75 29.4412 13.75 28.75V21.25C13.75 20.5588 14.31 20 15 20C15.69 20 16.25 20.5588 16.25 21.25V28.75C16.25 29.4412 15.69 30 15 30ZM7.5 22.5C4.7425 22.5 2.5 20.2575 2.5 17.5C2.5 15.1737 4.09625 13.2138 6.25125 12.6575L6.25 12.5C6.25 8.36375 9.61375 5 13.75 5C16.9837 5 19.78 7.04875 20.8125 10.0188C24.4825 9.71375 27.5 12.66 27.5 16.25C27.5 19.0512 25.6162 21.5287 22.9175 22.2738C22.2487 22.4563 21.5637 22.0662 21.38 21.4025C21.1962 20.7375 21.5862 20.0487 22.2525 19.865C23.87 19.4175 25 17.9312 25 16.25C25 14.1825 23.3175 12.5 21.25 12.5C20.9475 12.5 20.6262 12.5512 20.2362 12.6625L18.8937 13.045L18.6625 11.6675C18.255 9.2525 16.19 7.5 13.75 7.5C10.9925 7.5 8.75 9.7425 8.75 12.5C8.75 12.84 8.78375 13.1812 8.8525 13.51L9.1625 15.0125L7.385 14.9925C6.12125 15 5 16.1213 5 17.5C5 18.8787 6.12125 20 7.5 20C8.19 20 8.75 20.5588 8.75 21.25C8.75 21.9412 8.19 22.5 7.5 22.5Z" fill="white"/>
</svg>
